<?xml version="1.0" encoding="UTF-8"?>
<svg width="165px" height="50px" viewBox="0 0 165 50" version="1.1" xmlns="http://www.w3.org/2000/svg" xmlns:xlink="http://www.w3.org/1999/xlink">
    <title>Web / Logos / Mark+Type</title>
    <g id="🖥-Website" stroke="none" stroke-width="1" fill="none" fill-rule="evenodd">
        <g id="Blog-Home" transform="translate(-160.000000, -30.000000)">
            <g id="Web-/-Logos-/-Mark+Type" transform="translate(160.000000, 30.000000)">
                <g id="field-pro-logomark">
                    <path d="M6.84086855,0.307283751 L6.84161925,0.30852516 C7.24191073,-0.0881500458 7.88122867,-0.102317017 8.29812876,0.266024245 L8.34351222,0.30852516 L13.47327,5.39830361 C13.8626775,5.81153655 13.8545159,6.46006386 13.4482468,6.86316667 L13.4174266,6.89256143 L13.2844566,7.02583195 C7.97492985,12.4676236 8.02902605,21.1498398 13.4467452,26.5256013 L30.0624061,43.0117663 C30.6152035,43.5602555 30.6152035,44.4495322 30.0624061,44.9980213 L25.4581357,49.5664078 C24.9053382,50.114897 24.0090765,50.114897 23.456279,49.5664078 L6.84086855,33.0804913 C-2.18907794,24.1209207 -2.2793774,9.65025412 6.56997016,0.580461551 L6.84086855,0.307283751 Z M14.5728041,8.04462444 C19.3887756,3.26618676 27.1970081,3.26618676 32.0129795,8.04462444 C36.7807913,12.7752777 36.8284694,20.4157897 32.1560139,25.2046402 L32.0129795,25.348878 L24.6141172,32.6900765 C23.8844246,33.4140822 22.701359,33.4140822 21.9716664,32.6900765 L14.5728041,25.348878 L14.4297697,25.2046402 C9.75731423,20.4157897 9.80499234,12.7752777 14.5728041,8.04462444 Z M19.0872268,12.3678241 C16.6792411,14.757043 16.6792411,18.6307321 19.0872268,21.0199509 C21.4952125,23.4091698 25.3993288,23.4091698 27.8073145,21.0199509 C30.2153003,18.6307321 30.2153003,14.757043 27.8073145,12.3678241 C25.3993288,9.97860529 21.4952125,9.97860529 19.0872268,12.3678241 Z" id="Shape" fill="#124E5D"></path>
                    <path d="M30.2125453,29.4555759 C30.7653428,28.9070868 31.6616046,28.9070868 32.214402,29.4555759 L37.96974,35.1660591 C38.5225374,35.7145482 38.5225374,36.6038249 37.96974,37.1523141 L33.2153304,41.8696697 C32.6625329,42.4181589 31.7662711,42.4181589 31.2134737,41.8696697 L25.4581357,36.1591866 C24.9053382,35.6106974 24.9053382,34.7214207 25.4581357,34.1729316 L30.2125453,29.4555759 Z" id="Path" fill="#FEBD55"></path>
                </g>
                <g id="FieldPro" transform="translate(50.126582, 6.250000)" fill-rule="nonzero">
                    <path d="M4.59075949,22.0208333 L4.59075949,14.1166667 L13.7137975,14.1166667 L13.7137975,10.0333333 L4.59075949,10.0333333 L4.59075949,5.6875 L14.6202532,5.6875 L14.6202532,1.60416667 L0,1.60416667 L0,22.0208333 L4.59075949,22.0208333 Z M21.2244304,5.22083333 C22.9496203,5.22083333 23.9437975,4.22916667 23.9437975,2.59583333 C23.9437975,0.9625 22.9496203,-9.05941988e-14 21.2244304,-9.05941988e-14 C19.47,-9.05941988e-14 18.5050633,0.9625 18.5050633,2.59583333 C18.5050633,4.25833333 19.47,5.22083333 21.2244304,5.22083333 Z M23.4467089,22.0208333 L23.4467089,6.76666667 L18.9436709,6.76666667 L18.9436709,22.0208333 L23.4467089,22.0208333 Z M33.4427848,22.2833333 C35.4311392,22.2833333 37.0393671,21.7875 38.2674684,20.7958333 C39.5248101,19.8041667 40.2558228,18.5791667 40.4605063,17.1208333 L36.1036709,17.1208333 C35.7235443,18.1416667 34.8463291,18.6375 33.4427848,18.6375 C31.4544304,18.6375 30.4894937,17.4708333 30.4602532,15.6041667 L40.6651899,15.6041667 L40.6651899,13.9416667 C40.6651899,11.8125 40.0218987,10.0333333 38.7060759,8.63333333 C37.3902532,7.20416667 35.6065823,6.50416667 33.3550633,6.50416667 C30.9865823,6.50416667 29.1444304,7.2625 27.8286076,8.75 C26.5127848,10.2375 25.8694937,12.1333333 25.8694937,14.4083333 C25.8694937,16.6833333 26.5420253,18.5791667 27.8870886,20.0666667 C29.2613924,21.5541667 31.1035443,22.2833333 33.4427848,22.2833333 Z M36.0744304,12.775 L30.4894937,12.775 C30.5772152,11.2291667 31.5129114,10.1791667 33.3550633,10.1791667 C35.0802532,10.1791667 35.9867089,11.2291667 36.0744304,12.775 Z M47.8834177,22.0208333 L47.8834177,0.4375 L43.3803797,0.4375 L43.3803797,22.0208333 L47.8834177,22.0208333 Z M56.5051899,22.2833333 C58.2596203,22.2833333 59.6046835,21.7 60.5696203,20.5625 L60.6865823,20.5625 L61.1544304,22.0208333 L65.1896203,22.0208333 L65.1896203,0.4375 L60.6865823,0.4375 L60.6865823,8.225 L60.5696203,8.225 C59.6046835,7.0875 58.2596203,6.50416667 56.5051899,6.50416667 C54.604557,6.50416667 53.1132911,7.23333333 51.9729114,8.72083333 C50.8617722,10.1791667 50.3062025,12.075 50.3062025,14.3791667 C50.3062025,16.7125 50.8617722,18.6083333 51.9729114,20.0958333 C53.1132911,21.5541667 54.604557,22.2833333 56.5051899,22.2833333 Z M57.8794937,18.3458333 C55.8034177,18.3458333 54.8677215,16.7125 54.8677215,14.3791667 C54.8677215,11.7541667 55.8618987,10.4416667 57.8794937,10.4416667 C59.8970886,10.4416667 60.8912658,11.7541667 60.8912658,14.3791667 C60.8912658,16.7125 59.9555696,18.3458333 57.8794937,18.3458333 Z" id="Field" fill="#124E5D"></path>
                    <path d="M73.5189873,22.0208333 L73.5189873,15.1958333 L78.2267089,15.1958333 C80.2443038,15.1958333 81.8817722,14.5541667 83.1098734,13.2708333 C84.3672152,11.9583333 84.9812658,10.325 84.9812658,8.34166667 C84.9812658,6.3875 84.3672152,4.78333333 83.1391139,3.52916667 C81.9110127,2.24583333 80.2735443,1.60416667 78.2267089,1.60416667 L68.9282278,1.60416667 L68.9282278,22.0208333 L73.5189873,22.0208333 Z M77.3202532,11.1125 L73.5189873,11.1125 L73.5189873,5.65833333 L77.3202532,5.65833333 C79.1916456,5.65833333 80.3027848,6.59166667 80.3027848,8.34166667 C80.3027848,10.1791667 79.3086076,11.1125 77.3202532,11.1125 Z M92.0532911,22.0208333 L92.0532911,14.4958333 C92.0532911,12.075 93.4275949,10.6166667 95.5621519,10.6166667 L97.0241772,10.6166667 L97.0241772,6.50416667 L95.971519,6.50416667 C94.1878481,6.50416667 92.8720253,7.32083333 92.0532911,8.98333333 L91.9363291,8.98333333 L91.585443,6.76666667 L87.8426582,6.76666667 L87.8426582,22.0208333 L92.0532911,22.0208333 Z M106.640127,22.2833333 C109.067089,22.2833333 110.938481,21.5541667 112.254304,20.125 C113.599367,18.6666667 114.271899,16.7708333 114.271899,14.4083333 C114.271899,12.0458333 113.599367,10.15 112.254304,8.69166667 C110.909241,7.23333333 109.037848,6.50416667 106.640127,6.50416667 C104.242405,6.50416667 102.371013,7.23333333 101.025949,8.69166667 C99.6808861,10.15 99.0083544,12.0458333 99.0083544,14.4083333 C99.0083544,16.7708333 99.6808861,18.6666667 100.996709,20.125 C102.341772,21.5541667 104.213165,22.2833333 106.640127,22.2833333 Z M106.640127,18.3458333 C104.622532,18.3458333 103.599114,17.0333333 103.599114,14.4083333 C103.599114,11.7541667 104.622532,10.4416667 106.640127,10.4416667 C108.657722,10.4416667 109.681139,11.7541667 109.681139,14.4083333 C109.681139,17.0333333 108.657722,18.3458333 106.640127,18.3458333 Z" id="Pro" fill="#FEBD55"></path>
                </g>
                <path d="M54.061519,43.625 C55.8034177,43.625 56.8560759,42.6875 56.8560759,41.1 C56.8560759,40.0625 56.4174684,39.3625 55.5277215,38.9875 L55.5277215,38.9375 C56.1918987,38.575 56.5302532,37.9875 56.5302532,37.15 C56.5302532,35.7375 55.4901266,34.875 53.9362025,34.875 L50.1265823,34.875 L50.1265823,43.625 L54.061519,43.625 Z M53.6605063,38.4625 L51.5802532,38.4625 L51.5802532,36.175 L53.7482278,36.175 C54.5878481,36.175 55.0389873,36.575 55.0389873,37.2625 C55.0389873,38.05 54.5502532,38.4625 53.6605063,38.4625 Z M53.848481,42.3125 L51.5802532,42.3125 L51.5802532,39.7375 L53.848481,39.7375 C54.838481,39.7375 55.3522785,40.225 55.3522785,41.025 C55.3522785,41.825 54.8008861,42.3125 53.848481,42.3125 Z M60.565443,46.4875 L63.9991139,37.3 L63.9991139,37.175 L62.4827848,37.175 L60.8035443,42.025 L60.7534177,42.025 L59.0741772,37.175 L57.5829114,37.175 L57.5829114,37.3 L59.9388608,43.5875 L60.0892405,43.6 L59.0616456,46.3625 L59.0616456,46.4875 L60.565443,46.4875 Z M72.483038,43.7375 C73.7988608,43.7375 74.8013924,43.325 75.4906329,42.4875 C76.1798734,41.65 76.5307595,40.5625 76.5307595,39.25 C76.5307595,37.925 76.1798734,36.85 75.4906329,36.0125 C74.8013924,35.175 73.7988608,34.7625 72.483038,34.7625 C71.1672152,34.7625 70.1521519,35.175 69.4629114,36.0125 C68.7736709,36.85 68.4353165,37.925 68.4353165,39.25 C68.4353165,40.5625 68.7736709,41.65 69.4629114,42.4875 C70.1521519,43.325 71.1672152,43.7375 72.483038,43.7375 Z M72.483038,42.3875 C70.7662025,42.3875 69.9391139,41.1375 69.9391139,39.25 C69.9391139,38.3125 70.1396203,37.55 70.5531646,36.975 C70.9667089,36.4 71.6183544,36.1125 72.483038,36.1125 C74.1998734,36.1125 75.026962,37.3625 75.026962,39.25 C75.026962,41.1375 74.1998734,42.3875 72.483038,42.3875 Z M79.4631646,46.4875 L79.4631646,42.85 L79.5132911,42.85 C79.9017722,43.4375 80.5158228,43.7375 81.355443,43.7375 C82.2075949,43.7375 82.8717722,43.425 83.335443,42.8125 C83.8116456,42.2 84.0497468,41.3875 84.0497468,40.4 C84.0497468,39.3875 83.8116456,38.575 83.3229114,37.975 C82.8341772,37.3625 82.1825316,37.0625 81.355443,37.0625 C80.5158228,37.0625 79.9017722,37.3625 79.5132911,37.95 L79.4631646,37.95 L79.3002532,37.175 L78.034557,37.175 L78.034557,46.4875 L79.4631646,46.4875 Z M81.004557,42.475 C79.9393671,42.475 79.413038,41.6125 79.413038,40.4 C79.413038,39.1875 79.9393671,38.325 81.004557,38.325 C82.1073418,38.325 82.6086076,39.1625 82.6086076,40.4 C82.6086076,41.6375 82.1073418,42.475 81.004557,42.475 Z M87.9220253,43.7375 C88.3606329,43.7375 88.7365823,43.6875 89.0248101,43.6 L89.0248101,42.4 L88.8994937,42.4 C88.711519,42.4625 88.498481,42.4875 88.2729114,42.4875 C87.6839241,42.4875 87.4332911,42.225 87.4332911,41.6125 L87.4332911,38.3875 L88.9997468,38.3875 L88.9997468,37.175 L87.4332911,37.175 L87.4332911,35.4625 L87.3079747,35.4625 L86.0673418,35.8125 L86.0673418,37.175 L84.9394937,37.175 L84.9394937,38.3875 L86.0046835,38.3875 L86.0046835,41.8625 C86.0046835,43.1125 86.6437975,43.7375 87.9220253,43.7375 Z M91.2178481,36.1875 C91.5060759,36.1875 91.7316456,36.1125 91.894557,35.95 C92.0574684,35.7875 92.1326582,35.5625 92.1326582,35.2875 C92.1326582,35.0125 92.0574684,34.8 91.894557,34.6375 C91.7316456,34.475 91.5060759,34.4 91.2178481,34.4 C90.6163291,34.4 90.303038,34.7375 90.303038,35.2875 C90.303038,35.85 90.6288608,36.1875 91.2178481,36.1875 Z M91.9321519,43.625 L91.9321519,37.175 L90.5035443,37.175 L90.5035443,43.625 L91.9321519,43.625 Z M95.0650633,43.625 L95.0650633,40.0625 C95.0650633,39 95.641519,38.35 96.5062025,38.35 C97.3458228,38.35 97.7593671,38.825 97.7593671,39.7625 L97.7593671,43.625 L99.175443,43.625 L99.175443,40.0625 C99.175443,39 99.6892405,38.35 100.553924,38.35 C101.393544,38.35 101.807089,38.825 101.807089,39.7625 L101.807089,43.625 L103.235696,43.625 L103.235696,39.4125 C103.235696,37.9625 102.345949,37.0625 100.929873,37.0625 C100.002532,37.0625 99.3258228,37.4 98.9122785,38.075 L98.8746835,38.075 C98.4987342,37.4 97.8470886,37.0625 96.9322785,37.0625 C96.0926582,37.0625 95.4660759,37.375 95.0650633,38.0125 L95.0149367,38.0125 L94.9021519,37.175 L93.6364557,37.175 L93.6364557,43.625 L95.0650633,43.625 Z M107.571646,43.7375 C108.323544,43.7375 108.950127,43.5375 109.463924,43.15 C109.977722,42.7625 110.291013,42.2625 110.378734,41.6625 L108.987722,41.6625 C108.82481,42.25 108.348608,42.5375 107.571646,42.5375 C106.556582,42.5375 105.992658,41.8625 105.992658,40.8 L110.466456,40.8 L110.466456,40.2 C110.466456,39.2875 110.203291,38.5375 109.689494,37.95 C109.175696,37.3625 108.461392,37.0625 107.546582,37.0625 C106.569114,37.0625 105.817215,37.375 105.290886,38 C104.777089,38.625 104.513924,39.425 104.513924,40.4 C104.513924,41.375 104.78962,42.175 105.328481,42.8 C105.867342,43.425 106.619241,43.7375 107.571646,43.7375 Z M109.000253,39.7875 L106.00519,39.7875 C106.042785,38.8875 106.556582,38.275 107.546582,38.275 C108.486456,38.275 108.987722,38.8875 109.000253,39.7875 Z M114.338734,43.7375 C114.777342,43.7375 115.153291,43.6875 115.441519,43.6 L115.441519,42.4 L115.316203,42.4 C115.128228,42.4625 114.91519,42.4875 114.68962,42.4875 C114.100633,42.4875 113.85,42.225 113.85,41.6125 L113.85,38.3875 L115.416456,38.3875 L115.416456,37.175 L113.85,37.175 L113.85,35.4625 L113.724684,35.4625 L112.484051,35.8125 L112.484051,37.175 L111.356203,37.175 L111.356203,38.3875 L112.421392,38.3875 L112.421392,41.8625 C112.421392,43.1125 113.060506,43.7375 114.338734,43.7375 Z M118.298734,43.625 L118.298734,40.475 C118.298734,39.1625 118.862658,38.4125 119.952911,38.4125 L120.504304,38.4125 L120.504304,37.0875 L119.977975,37.0875 C119.175949,37.0875 118.561899,37.5125 118.298734,38.2 L118.248608,38.2 L118.123291,37.175 L116.920253,37.175 L116.920253,43.625 L118.298734,43.625 Z M122.521899,36.1875 C122.810127,36.1875 123.035696,36.1125 123.198608,35.95 C123.361519,35.7875 123.436709,35.5625 123.436709,35.2875 C123.436709,35.0125 123.361519,34.8 123.198608,34.6375 C123.035696,34.475 122.810127,34.4 122.521899,34.4 C121.92038,34.4 121.607089,34.7375 121.607089,35.2875 C121.607089,35.85 121.932911,36.1875 122.521899,36.1875 Z M123.236203,43.625 L123.236203,37.175 L121.807595,37.175 L121.807595,43.625 L123.236203,43.625 Z M126.318987,43.625 L126.318987,40.45 L128.837848,43.625 L130.52962,43.625 L130.52962,43.5 L127.810253,40.1 L130.429367,37.3 L130.429367,37.175 L128.750127,37.175 L126.318987,39.8 L126.318987,34.375 L124.940506,34.375 L124.940506,43.625 L126.318987,43.625 Z M133.963291,43.7375 C134.740253,43.7375 135.379367,43.5625 135.880633,43.225 C136.39443,42.875 136.645063,42.4 136.645063,41.7875 C136.645063,40.6375 136.005949,40.125 134.765316,39.8625 L133.662532,39.65 C133.098608,39.5625 132.81038,39.325 132.81038,38.95 C132.81038,38.4875 133.236456,38.2125 133.888101,38.2125 C134.627468,38.2125 135.053544,38.575 135.091139,39.175 L136.494684,39.175 C136.494684,37.925 135.467089,37.0625 133.913165,37.0625 C132.371772,37.0625 131.419367,37.85 131.419367,38.9375 C131.419367,39.9625 132.020886,40.6 133.211392,40.8375 L134.351772,41.05 C134.915696,41.1625 135.203924,41.4125 135.203924,41.7875 C135.203924,42.275 134.79038,42.5125 133.963291,42.5125 C133.148734,42.5125 132.647468,42.1125 132.647468,41.475 L131.218861,41.475 C131.256456,42.8625 132.258987,43.7375 133.963291,43.7375 Z" id="ByOptimetriks" fill="#124E5D" fill-rule="nonzero"></path>
            </g>
        </g>
    </g>
</svg>